<mxfile host="app.diagrams.net" agent="Mozilla/5.0 (Windows NT 10.0; Win64; x64) AppleWebKit/537.36 (KHTML, like Gecko) Chrome/130.0.0.0 Safari/537.36 OPR/115.0.0.0" version="26.0.5">
  <diagram name="Page-1" id="G2eKSzVXRmTiApU2e1zz">
    <mxGraphModel dx="1546" dy="822" grid="1" gridSize="11" guides="1" tooltips="1" connect="1" arrows="1" fold="1" page="1" pageScale="1" pageWidth="3300" pageHeight="4681" math="0" shadow="0">
      <root>
        <mxCell id="0" />
        <mxCell id="1" parent="0" />
        <mxCell id="ZIUQJG-ilmbsTQ7aYj0z-73" style="edgeStyle=orthogonalEdgeStyle;rounded=0;orthogonalLoop=1;jettySize=auto;html=1;exitX=1;exitY=0.5;exitDx=0;exitDy=0;exitPerimeter=0;" edge="1" parent="1" source="ZIUQJG-ilmbsTQ7aYj0z-2">
          <mxGeometry relative="1" as="geometry">
            <mxPoint x="1188" y="412" as="targetPoint" />
          </mxGeometry>
        </mxCell>
        <mxCell id="ZIUQJG-ilmbsTQ7aYj0z-2" value="MobileDB" style="shape=cylinder3;whiteSpace=wrap;html=1;boundedLbl=1;backgroundOutline=1;size=15;" vertex="1" parent="1">
          <mxGeometry x="880" y="308" width="154" height="209" as="geometry" />
        </mxCell>
        <mxCell id="ZIUQJG-ilmbsTQ7aYj0z-35" value="" style="group" vertex="1" connectable="0" parent="1">
          <mxGeometry x="495" y="198" width="143" height="99" as="geometry" />
        </mxCell>
        <mxCell id="ZIUQJG-ilmbsTQ7aYj0z-23" value="" style="group" vertex="1" connectable="0" parent="ZIUQJG-ilmbsTQ7aYj0z-35">
          <mxGeometry x="7" width="121" height="55" as="geometry" />
        </mxCell>
        <mxCell id="ZIUQJG-ilmbsTQ7aYj0z-24" value="" style="rounded=0;whiteSpace=wrap;html=1;" vertex="1" parent="ZIUQJG-ilmbsTQ7aYj0z-23">
          <mxGeometry width="102.25352112676056" height="40.243902439024396" as="geometry" />
        </mxCell>
        <mxCell id="ZIUQJG-ilmbsTQ7aYj0z-25" value="" style="rounded=0;whiteSpace=wrap;html=1;" vertex="1" parent="ZIUQJG-ilmbsTQ7aYj0z-23">
          <mxGeometry x="9.373239436619718" y="7.378048780487806" width="102.25352112676056" height="40.243902439024396" as="geometry" />
        </mxCell>
        <mxCell id="ZIUQJG-ilmbsTQ7aYj0z-26" value="" style="rounded=0;whiteSpace=wrap;html=1;" vertex="1" parent="ZIUQJG-ilmbsTQ7aYj0z-23">
          <mxGeometry x="18.746478873239436" y="14.756097560975611" width="102.25352112676056" height="40.243902439024396" as="geometry" />
        </mxCell>
        <mxCell id="ZIUQJG-ilmbsTQ7aYj0z-33" value="MP-Images&lt;div&gt;&amp;amp; Labels Collection 1&lt;/div&gt;" style="text;html=1;align=center;verticalAlign=middle;resizable=0;points=[];autosize=1;strokeColor=none;fillColor=none;" vertex="1" parent="ZIUQJG-ilmbsTQ7aYj0z-35">
          <mxGeometry y="55" width="143" height="44" as="geometry" />
        </mxCell>
        <mxCell id="ZIUQJG-ilmbsTQ7aYj0z-36" value="" style="group" vertex="1" connectable="0" parent="1">
          <mxGeometry x="495" y="308" width="143" height="99" as="geometry" />
        </mxCell>
        <mxCell id="ZIUQJG-ilmbsTQ7aYj0z-37" value="" style="group" vertex="1" connectable="0" parent="ZIUQJG-ilmbsTQ7aYj0z-36">
          <mxGeometry x="7" width="121" height="55" as="geometry" />
        </mxCell>
        <mxCell id="ZIUQJG-ilmbsTQ7aYj0z-38" value="" style="rounded=0;whiteSpace=wrap;html=1;" vertex="1" parent="ZIUQJG-ilmbsTQ7aYj0z-37">
          <mxGeometry width="102.25352112676056" height="40.243902439024396" as="geometry" />
        </mxCell>
        <mxCell id="ZIUQJG-ilmbsTQ7aYj0z-39" value="" style="rounded=0;whiteSpace=wrap;html=1;" vertex="1" parent="ZIUQJG-ilmbsTQ7aYj0z-37">
          <mxGeometry x="9.373239436619718" y="7.378048780487806" width="102.25352112676056" height="40.243902439024396" as="geometry" />
        </mxCell>
        <mxCell id="ZIUQJG-ilmbsTQ7aYj0z-40" value="" style="rounded=0;whiteSpace=wrap;html=1;" vertex="1" parent="ZIUQJG-ilmbsTQ7aYj0z-37">
          <mxGeometry x="18.746478873239436" y="14.756097560975611" width="102.25352112676056" height="40.243902439024396" as="geometry" />
        </mxCell>
        <mxCell id="ZIUQJG-ilmbsTQ7aYj0z-41" value="MP-Images&lt;div&gt;&amp;amp; Labels Collection 2&lt;/div&gt;" style="text;html=1;align=center;verticalAlign=middle;resizable=0;points=[];autosize=1;strokeColor=none;fillColor=none;" vertex="1" parent="ZIUQJG-ilmbsTQ7aYj0z-36">
          <mxGeometry y="55" width="143" height="44" as="geometry" />
        </mxCell>
        <mxCell id="ZIUQJG-ilmbsTQ7aYj0z-42" value="" style="group" vertex="1" connectable="0" parent="1">
          <mxGeometry x="495" y="429" width="143" height="99" as="geometry" />
        </mxCell>
        <mxCell id="ZIUQJG-ilmbsTQ7aYj0z-43" value="" style="group" vertex="1" connectable="0" parent="ZIUQJG-ilmbsTQ7aYj0z-42">
          <mxGeometry x="7" width="121" height="55" as="geometry" />
        </mxCell>
        <mxCell id="ZIUQJG-ilmbsTQ7aYj0z-44" value="" style="rounded=0;whiteSpace=wrap;html=1;" vertex="1" parent="ZIUQJG-ilmbsTQ7aYj0z-43">
          <mxGeometry width="102.25352112676056" height="40.243902439024396" as="geometry" />
        </mxCell>
        <mxCell id="ZIUQJG-ilmbsTQ7aYj0z-45" value="" style="rounded=0;whiteSpace=wrap;html=1;" vertex="1" parent="ZIUQJG-ilmbsTQ7aYj0z-43">
          <mxGeometry x="9.373239436619718" y="7.378048780487806" width="102.25352112676056" height="40.243902439024396" as="geometry" />
        </mxCell>
        <mxCell id="ZIUQJG-ilmbsTQ7aYj0z-46" value="" style="rounded=0;whiteSpace=wrap;html=1;" vertex="1" parent="ZIUQJG-ilmbsTQ7aYj0z-43">
          <mxGeometry x="18.746478873239436" y="14.756097560975611" width="102.25352112676056" height="40.243902439024396" as="geometry" />
        </mxCell>
        <mxCell id="ZIUQJG-ilmbsTQ7aYj0z-47" value="MP-Images&lt;div&gt;&amp;amp; Labels Collection 3&lt;/div&gt;" style="text;html=1;align=center;verticalAlign=middle;resizable=0;points=[];autosize=1;strokeColor=none;fillColor=none;" vertex="1" parent="ZIUQJG-ilmbsTQ7aYj0z-42">
          <mxGeometry y="55" width="143" height="44" as="geometry" />
        </mxCell>
        <mxCell id="ZIUQJG-ilmbsTQ7aYj0z-48" value="" style="group" vertex="1" connectable="0" parent="1">
          <mxGeometry x="495" y="605" width="143" height="99" as="geometry" />
        </mxCell>
        <mxCell id="ZIUQJG-ilmbsTQ7aYj0z-49" value="" style="group" vertex="1" connectable="0" parent="ZIUQJG-ilmbsTQ7aYj0z-48">
          <mxGeometry x="7" width="121" height="55" as="geometry" />
        </mxCell>
        <mxCell id="ZIUQJG-ilmbsTQ7aYj0z-50" value="" style="rounded=0;whiteSpace=wrap;html=1;" vertex="1" parent="ZIUQJG-ilmbsTQ7aYj0z-49">
          <mxGeometry width="102.25352112676056" height="40.243902439024396" as="geometry" />
        </mxCell>
        <mxCell id="ZIUQJG-ilmbsTQ7aYj0z-51" value="" style="rounded=0;whiteSpace=wrap;html=1;" vertex="1" parent="ZIUQJG-ilmbsTQ7aYj0z-49">
          <mxGeometry x="9.373239436619718" y="7.378048780487806" width="102.25352112676056" height="40.243902439024396" as="geometry" />
        </mxCell>
        <mxCell id="ZIUQJG-ilmbsTQ7aYj0z-52" value="" style="rounded=0;whiteSpace=wrap;html=1;" vertex="1" parent="ZIUQJG-ilmbsTQ7aYj0z-49">
          <mxGeometry x="18.746478873239436" y="14.756097560975611" width="102.25352112676056" height="40.243902439024396" as="geometry" />
        </mxCell>
        <mxCell id="ZIUQJG-ilmbsTQ7aYj0z-53" value="MP-Images&lt;div&gt;&amp;amp; Labels Collection N&lt;/div&gt;" style="text;html=1;align=center;verticalAlign=middle;resizable=0;points=[];autosize=1;strokeColor=none;fillColor=none;" vertex="1" parent="ZIUQJG-ilmbsTQ7aYj0z-48">
          <mxGeometry y="55" width="143" height="44" as="geometry" />
        </mxCell>
        <mxCell id="ZIUQJG-ilmbsTQ7aYj0z-54" value="" style="endArrow=none;dashed=1;html=1;dashPattern=1 3;strokeWidth=2;rounded=0;" edge="1" parent="1">
          <mxGeometry width="50" height="50" relative="1" as="geometry">
            <mxPoint x="566" y="594" as="sourcePoint" />
            <mxPoint x="566" y="539" as="targetPoint" />
          </mxGeometry>
        </mxCell>
        <mxCell id="ZIUQJG-ilmbsTQ7aYj0z-57" style="edgeStyle=orthogonalEdgeStyle;rounded=0;orthogonalLoop=1;jettySize=auto;html=1;exitX=1;exitY=0.5;exitDx=0;exitDy=0;entryX=0.5;entryY=0;entryDx=0;entryDy=0;entryPerimeter=0;" edge="1" parent="1" source="ZIUQJG-ilmbsTQ7aYj0z-26" target="ZIUQJG-ilmbsTQ7aYj0z-2">
          <mxGeometry relative="1" as="geometry" />
        </mxCell>
        <mxCell id="ZIUQJG-ilmbsTQ7aYj0z-60" style="edgeStyle=orthogonalEdgeStyle;rounded=0;orthogonalLoop=1;jettySize=auto;html=1;exitX=1;exitY=0.5;exitDx=0;exitDy=0;" edge="1" parent="1" source="ZIUQJG-ilmbsTQ7aYj0z-52" target="ZIUQJG-ilmbsTQ7aYj0z-2">
          <mxGeometry relative="1" as="geometry" />
        </mxCell>
        <mxCell id="ZIUQJG-ilmbsTQ7aYj0z-62" style="edgeStyle=orthogonalEdgeStyle;rounded=0;orthogonalLoop=1;jettySize=auto;html=1;exitX=1;exitY=0.5;exitDx=0;exitDy=0;" edge="1" parent="1" source="ZIUQJG-ilmbsTQ7aYj0z-46">
          <mxGeometry relative="1" as="geometry">
            <mxPoint x="880" y="463" as="targetPoint" />
          </mxGeometry>
        </mxCell>
        <mxCell id="ZIUQJG-ilmbsTQ7aYj0z-67" style="edgeStyle=orthogonalEdgeStyle;rounded=0;orthogonalLoop=1;jettySize=auto;html=1;exitX=1;exitY=0.5;exitDx=0;exitDy=0;" edge="1" parent="1">
          <mxGeometry relative="1" as="geometry">
            <mxPoint x="880" y="341" as="targetPoint" />
            <mxPoint x="623" y="342" as="sourcePoint" />
          </mxGeometry>
        </mxCell>
        <mxCell id="ZIUQJG-ilmbsTQ7aYj0z-68" value="ETL 1&lt;div&gt;&lt;br&gt;&lt;/div&gt;" style="text;html=1;align=center;verticalAlign=middle;resizable=0;points=[];autosize=1;strokeColor=none;fillColor=none;" vertex="1" parent="1">
          <mxGeometry x="752" y="201" width="55" height="44" as="geometry" />
        </mxCell>
        <mxCell id="ZIUQJG-ilmbsTQ7aYj0z-69" value="ETL N" style="text;html=1;align=center;verticalAlign=middle;resizable=0;points=[];autosize=1;strokeColor=none;fillColor=none;" vertex="1" parent="1">
          <mxGeometry x="737" y="611" width="55" height="33" as="geometry" />
        </mxCell>
        <mxCell id="ZIUQJG-ilmbsTQ7aYj0z-70" value="ETL 3" style="text;html=1;align=center;verticalAlign=middle;resizable=0;points=[];autosize=1;strokeColor=none;fillColor=none;" vertex="1" parent="1">
          <mxGeometry x="737" y="435" width="55" height="33" as="geometry" />
        </mxCell>
        <mxCell id="ZIUQJG-ilmbsTQ7aYj0z-71" value="ETL 2" style="text;html=1;align=center;verticalAlign=middle;resizable=0;points=[];autosize=1;strokeColor=none;fillColor=none;" vertex="1" parent="1">
          <mxGeometry x="737" y="314" width="55" height="33" as="geometry" />
        </mxCell>
        <mxCell id="ZIUQJG-ilmbsTQ7aYj0z-77" style="edgeStyle=orthogonalEdgeStyle;rounded=0;orthogonalLoop=1;jettySize=auto;html=1;exitX=1;exitY=0.5;exitDx=0;exitDy=0;entryX=-0.02;entryY=0.398;entryDx=0;entryDy=0;entryPerimeter=0;" edge="1" parent="1" source="ZIUQJG-ilmbsTQ7aYj0z-75" target="ZIUQJG-ilmbsTQ7aYj0z-80">
          <mxGeometry relative="1" as="geometry">
            <mxPoint x="1495.9999999999995" y="412" as="targetPoint" />
          </mxGeometry>
        </mxCell>
        <mxCell id="ZIUQJG-ilmbsTQ7aYj0z-75" value="Image Transformation" style="rounded=1;whiteSpace=wrap;html=1;" vertex="1" parent="1">
          <mxGeometry x="1188" y="363" width="187" height="99" as="geometry" />
        </mxCell>
        <mxCell id="ZIUQJG-ilmbsTQ7aYj0z-76" value="&lt;ul&gt;&lt;li&gt;Resizing images&lt;/li&gt;&lt;li style=&quot;&quot;&gt;Image and Label Combining&lt;/li&gt;&lt;li&gt;Text Processing&lt;/li&gt;&lt;/ul&gt;" style="text;html=1;align=left;verticalAlign=middle;resizable=0;points=[];autosize=1;strokeColor=none;fillColor=none;" vertex="1" parent="1">
          <mxGeometry x="1188" y="468" width="220" height="77" as="geometry" />
        </mxCell>
        <mxCell id="ZIUQJG-ilmbsTQ7aYj0z-78" value="ImgDB1" style="shape=cylinder3;whiteSpace=wrap;html=1;boundedLbl=1;backgroundOutline=1;size=15;" vertex="1" parent="1">
          <mxGeometry x="1595" y="78" width="110" height="123" as="geometry" />
        </mxCell>
        <mxCell id="ZIUQJG-ilmbsTQ7aYj0z-79" value="ImgDB2" style="shape=cylinder3;whiteSpace=wrap;html=1;boundedLbl=1;backgroundOutline=1;size=15;" vertex="1" parent="1">
          <mxGeometry x="1595" y="224" width="110" height="123" as="geometry" />
        </mxCell>
        <mxCell id="ZIUQJG-ilmbsTQ7aYj0z-80" value="ImgDB3" style="shape=cylinder3;whiteSpace=wrap;html=1;boundedLbl=1;backgroundOutline=1;size=15;" vertex="1" parent="1">
          <mxGeometry x="1595" y="363" width="110" height="123" as="geometry" />
        </mxCell>
        <mxCell id="ZIUQJG-ilmbsTQ7aYj0z-81" value="ImgDBN" style="shape=cylinder3;whiteSpace=wrap;html=1;boundedLbl=1;backgroundOutline=1;size=15;" vertex="1" parent="1">
          <mxGeometry x="1595" y="566" width="110" height="123" as="geometry" />
        </mxCell>
        <mxCell id="ZIUQJG-ilmbsTQ7aYj0z-82" value="" style="endArrow=none;dashed=1;html=1;dashPattern=1 3;strokeWidth=2;rounded=0;" edge="1" parent="1">
          <mxGeometry width="50" height="50" relative="1" as="geometry">
            <mxPoint x="1650" y="550" as="sourcePoint" />
            <mxPoint x="1650" y="495" as="targetPoint" />
          </mxGeometry>
        </mxCell>
        <mxCell id="ZIUQJG-ilmbsTQ7aYj0z-84" value="" style="endArrow=classic;html=1;rounded=0;entryX=-0.001;entryY=0.563;entryDx=0;entryDy=0;entryPerimeter=0;" edge="1" parent="1" target="ZIUQJG-ilmbsTQ7aYj0z-78">
          <mxGeometry width="50" height="50" relative="1" as="geometry">
            <mxPoint x="1375" y="369" as="sourcePoint" />
            <mxPoint x="1425" y="319" as="targetPoint" />
          </mxGeometry>
        </mxCell>
        <mxCell id="ZIUQJG-ilmbsTQ7aYj0z-85" value="" style="endArrow=classic;html=1;rounded=0;entryX=0;entryY=0.5;entryDx=0;entryDy=0;entryPerimeter=0;exitX=1;exitY=0.25;exitDx=0;exitDy=0;" edge="1" parent="1" source="ZIUQJG-ilmbsTQ7aYj0z-75" target="ZIUQJG-ilmbsTQ7aYj0z-79">
          <mxGeometry width="50" height="50" relative="1" as="geometry">
            <mxPoint x="1386" y="380" as="sourcePoint" />
            <mxPoint x="1606" y="158" as="targetPoint" />
          </mxGeometry>
        </mxCell>
        <mxCell id="ZIUQJG-ilmbsTQ7aYj0z-87" value="" style="endArrow=classic;html=1;rounded=0;entryX=0;entryY=0.5;entryDx=0;entryDy=0;entryPerimeter=0;exitX=1;exitY=0.75;exitDx=0;exitDy=0;" edge="1" parent="1" source="ZIUQJG-ilmbsTQ7aYj0z-75" target="ZIUQJG-ilmbsTQ7aYj0z-81">
          <mxGeometry width="50" height="50" relative="1" as="geometry">
            <mxPoint x="1342" y="657" as="sourcePoint" />
            <mxPoint x="1562" y="435" as="targetPoint" />
          </mxGeometry>
        </mxCell>
        <mxCell id="ZIUQJG-ilmbsTQ7aYj0z-88" value="&lt;div style=&quot;text-align: left;&quot;&gt;&lt;span style=&quot;background-color: transparent; color: light-dark(rgb(0, 0, 0), rgb(255, 255, 255));&quot;&gt;ImgDB Database&lt;/span&gt;&lt;/div&gt;&lt;div style=&quot;text-align: left;&quot;&gt;&lt;ul&gt;&lt;li&gt;images&lt;/li&gt;&lt;li&gt;labels&lt;/li&gt;&lt;/ul&gt;&lt;/div&gt;&lt;div&gt;&lt;br&gt;&lt;/div&gt;" style="text;html=1;align=center;verticalAlign=middle;resizable=0;points=[];autosize=1;strokeColor=none;fillColor=none;" vertex="1" parent="1">
          <mxGeometry x="1749" y="319" width="121" height="99" as="geometry" />
        </mxCell>
        <mxCell id="ZIUQJG-ilmbsTQ7aYj0z-89" value="ETL 1" style="text;html=1;align=center;verticalAlign=middle;resizable=0;points=[];autosize=1;strokeColor=none;fillColor=none;" vertex="1" parent="1">
          <mxGeometry x="1474" y="191" width="55" height="33" as="geometry" />
        </mxCell>
        <mxCell id="ZIUQJG-ilmbsTQ7aYj0z-90" value="ETL 2" style="text;html=1;align=center;verticalAlign=middle;resizable=0;points=[];autosize=1;strokeColor=none;fillColor=none;" vertex="1" parent="1">
          <mxGeometry x="1474" y="286" width="55" height="33" as="geometry" />
        </mxCell>
        <mxCell id="ZIUQJG-ilmbsTQ7aYj0z-91" value="ETL 3" style="text;html=1;align=center;verticalAlign=middle;resizable=0;points=[];autosize=1;strokeColor=none;fillColor=none;" vertex="1" parent="1">
          <mxGeometry x="1474" y="374" width="55" height="33" as="geometry" />
        </mxCell>
        <mxCell id="ZIUQJG-ilmbsTQ7aYj0z-92" value="ETL N" style="text;html=1;align=center;verticalAlign=middle;resizable=0;points=[];autosize=1;strokeColor=none;fillColor=none;" vertex="1" parent="1">
          <mxGeometry x="1474" y="495" width="55" height="33" as="geometry" />
        </mxCell>
      </root>
    </mxGraphModel>
  </diagram>
</mxfile>
